<svg width="31" height="29" viewBox="0 0 31 29" fill="none" xmlns="http://www.w3.org/2000/svg">
<path d="M15.4098 0.0650635C13.447 0.0650635 11.5033 0.438128 9.68987 1.16296C7.87643 1.88778 6.22869 2.95018 4.84074 4.28949C2.03765 6.99434 0.462891 10.6629 0.462891 14.4881C0.462891 20.8631 4.75266 26.2718 10.6866 28.1901C11.4339 28.3055 11.6731 27.8583 11.6731 27.4689C11.6731 27.1372 11.6731 26.2285 11.6731 25.0314C7.53278 25.8968 6.65092 23.0987 6.65092 23.0987C5.96336 21.4256 4.99181 20.9785 4.99181 20.9785C3.63164 20.0843 5.09644 20.1131 5.09644 20.1131C6.59113 20.2141 7.38332 21.5987 7.38332 21.5987C8.6837 23.791 10.8809 23.142 11.7329 22.7958C11.8674 21.8583 12.256 21.2237 12.6745 20.8631C9.35631 20.5026 5.87368 19.2622 5.87368 13.767C5.87368 12.166 6.44166 10.8824 7.41321 9.85834C7.26374 9.49776 6.7406 7.99776 7.56268 6.05064C7.56268 6.05064 8.81822 5.66122 11.6731 7.5218C12.8539 7.20449 14.1393 7.04584 15.4098 7.04584C16.6803 7.04584 17.9657 7.20449 19.1465 7.5218C22.0014 5.66122 23.2569 6.05064 23.2569 6.05064C24.079 7.99776 23.5559 9.49776 23.4064 9.85834C24.378 10.8824 24.9459 12.166 24.9459 13.767C24.9459 19.2766 21.4484 20.4881 18.1152 20.8487C18.6533 21.2958 19.1465 22.1756 19.1465 23.517C19.1465 25.4497 19.1465 27.0074 19.1465 27.4689C19.1465 27.8583 19.3857 28.3199 20.148 28.1901C26.0819 26.2574 30.3567 20.8631 30.3567 14.4881C30.3567 12.5941 29.9701 10.7186 29.219 8.96867C28.4678 7.21878 27.3668 5.62879 25.9789 4.28949C24.5909 2.95018 22.9432 1.88778 21.1298 1.16296C19.3163 0.438128 17.3727 0.0650635 15.4098 0.0650635Z" fill="#20294C"/>
</svg>
