<svg width="31" height="30" viewBox="0 0 31 30" fill="none" xmlns="http://www.w3.org/2000/svg">
<path d="M27.2149 0.715576C28.0958 0.715576 28.9407 1.05326 29.5636 1.65434C30.1865 2.25541 30.5364 3.07065 30.5364 3.92071V26.3566C30.5364 27.2067 30.1865 28.0219 29.5636 28.623C28.9407 29.2241 28.0958 29.5617 27.2149 29.5617H3.96412C3.08319 29.5617 2.23834 29.2241 1.61543 28.623C0.992525 28.0219 0.642578 27.2067 0.642578 26.3566V3.92071C0.642578 3.07065 0.992525 2.25541 1.61543 1.65434C2.23834 1.05326 3.08319 0.715576 3.96412 0.715576H27.2149ZM26.3845 25.5553V17.0617C26.3845 15.6761 25.8141 14.3473 24.7987 13.3676C23.7834 12.3878 22.4063 11.8374 20.9704 11.8374C19.5587 11.8374 17.9146 12.6707 17.1174 13.9207V12.1419H12.4839V25.5553H17.1174V17.6547C17.1174 16.4207 18.1471 15.4111 19.4259 15.4111C20.0425 15.4111 20.6339 15.6475 21.07 16.0682C21.506 16.489 21.751 17.0596 21.751 17.6547V25.5553H26.3845ZM7.08636 9.62584C7.82634 9.62584 8.53601 9.34218 9.05926 8.83728C9.5825 8.33237 9.87645 7.64757 9.87645 6.93353C9.87645 5.44314 8.63088 4.22519 7.08636 4.22519C6.34198 4.22519 5.62808 4.51053 5.10173 5.01845C4.57537 5.52636 4.27966 6.21523 4.27966 6.93353C4.27966 8.42391 5.54185 9.62584 7.08636 9.62584ZM9.39483 25.5553V12.1419H4.7945V25.5553H9.39483Z" fill="#20294C"/>
</svg>
